<?xml version="1.0" encoding="UTF-8"?>
<svg xmlns="http://www.w3.org/2000/svg" width="37" height="30" viewBox="0 0 37 30" fill="none">
  <g clip-path="url(#clip0_3_3704)">
    <path d="M30.8118 5.40248C28.5084 4.9364 24.7944 4.30606 23.7567 6.47438C20.5856 11.9671 18.7649 17.7158 17.3945 20.1823C17.5385 20.2654 23.8548 23.9301 24.3016 24.1469C25.7216 24.836 28.0923 24.5259 29.1023 22.7044C31.904 17.6513 31.1918 18.9669 34.1687 13.811C36.0923 10.479 33.6872 5.98422 30.8118 5.40248Z" fill="#EA4335"></path>
    <path d="M10.8824 27.7C9.33574 25.9306 8.20115 22.3905 9.56022 20.408C13.5305 13.5311 16.7087 9.36813 19.2083 5.19531C20.5337 5.9606 25.8445 8.97301 26.1981 9.28339C27.3846 10.3242 28.3676 12.3131 27.2951 14.0984C24.3198 19.0514 23.0991 21.2928 20.075 26.5307C18.1509 29.8635 12.8147 29.9105 10.8824 27.7Z" fill="#FDBD00"></path>
    <path d="M25.12 1.89718C22.0259 0.089159 20.4355 0.326117 18.7716 0.592968C17.2589 0.971114 15.2135 2.07044 14.3512 3.48276C12.1761 7.0454 10.1159 10.5708 7.44693 15.3481C6.62491 16.8195 7.23508 18.6272 7.99369 19.3446C8.50781 19.831 12.2906 21.9181 12.9885 22.2181C13.9758 22.6426 15.4548 22.3473 16.3469 21.4291C16.5933 21.1754 22.2364 11.4825 23.8256 8.62358C24.4965 7.41717 25.1007 6.74953 26.1038 6.10599C28.0417 5.08908 29.5547 4.95791 31.8722 5.80533C31.8722 5.80533 26.8283 2.88173 25.12 1.89718Z" fill="#2DA94F"></path>
    <path d="M5.21295 24.6458C2.09999 22.8702 1.50999 21.3745 0.909104 19.7999C0.480315 18.301 0.409648 15.9799 1.20164 14.5268C3.1996 10.862 3.18524 10.8434 5.98811 6.14327C6.85135 4.69569 8.72206 4.3203 9.72271 4.6185C10.4009 4.82049 14.0997 7.05294 14.7086 7.50742C15.5699 8.15024 16.0535 9.57866 15.7044 10.8105C15.6079 11.1506 12.0721 17.3559 10.3911 20.1618C9.6815 21.3459 9.40551 22.2029 9.34978 23.3934C9.43801 25.5801 10.0808 26.956 11.9736 28.5394C11.9736 28.5394 6.91969 25.6329 5.21295 24.6458Z" fill="#297AEC"></path>
  </g>
  <defs>
    <clipPath id="clip0_3_3704">
      <rect width="35.6803" height="30" fill="white" transform="translate(0.410156)"></rect>
    </clipPath>
  </defs>
</svg>
