<?xml version="1.0" encoding="UTF-8"?>
<svg xmlns="http://www.w3.org/2000/svg" width="51" height="50" viewBox="0 0 51 50" fill="none">
  <g clip-path="url(#clip0_3_3683)">
    <path fill-rule="evenodd" clip-rule="evenodd" d="M0.480469 0H50.4805V50H0.480469V0Z" fill="white"></path>
    <path fill-rule="evenodd" clip-rule="evenodd" d="M25.491 34.5106C27.7392 36.5821 30.7583 37.8386 34.0422 37.8386C41.0949 37.8386 46.8032 32.0863 46.8032 25.0113C46.8032 17.9147 41.0949 12.1621 34.0422 12.1621C30.7583 12.1621 27.7392 13.4184 25.491 15.4902C22.9123 17.8483 21.2812 21.2425 21.2812 25.0113C21.2815 28.78 22.9123 32.1745 25.491 34.5106Z" fill="#E9B040"></path>
    <path fill-rule="evenodd" clip-rule="evenodd" d="M45.1055 32.1525C45.1055 31.932 45.2819 31.7559 45.5021 31.7559C45.7444 31.7559 45.9205 31.9322 45.9205 32.1525C45.9205 32.3953 45.7441 32.5714 45.5021 32.5714C45.2819 32.5714 45.1055 32.3953 45.1055 32.1525ZM45.5021 32.4835C45.6785 32.4835 45.8323 32.3289 45.8323 32.1527C45.8323 31.9766 45.6782 31.8443 45.5021 31.8443C45.3475 31.8443 45.1937 31.9766 45.1937 32.1527C45.1937 32.3289 45.3477 32.4835 45.5021 32.4835ZM45.458 32.3512H45.3698V31.9763H45.5239C45.5462 31.9763 45.5903 31.9763 45.6121 31.9987C45.6562 32.0204 45.6562 32.0428 45.6562 32.0868C45.6562 32.1309 45.6344 32.175 45.5903 32.175L45.6785 32.3514H45.568L45.5239 32.1968H45.458V32.3512V32.1307H45.5462C45.568 32.1307 45.568 32.1084 45.568 32.0866C45.568 32.0643 45.568 32.0643 45.5462 32.0425H45.458V32.3512Z" fill="#E9B040"></path>
    <path fill-rule="evenodd" clip-rule="evenodd" d="M29.612 23.645C29.5679 23.1823 29.4797 22.7415 29.3915 22.2785H21.5894C21.6776 21.8158 21.8099 21.3751 21.9419 20.9341H29.017C28.8634 20.4701 28.6869 20.014 28.488 19.5676H22.4932C22.7137 19.1007 22.9564 18.6447 23.2205 18.2011H27.7389C27.4482 17.7304 27.1242 17.2811 26.7693 16.8566H24.1904C24.5893 16.3695 25.0239 15.9127 25.4907 15.4902C23.2208 13.4404 20.2232 12.1621 16.9172 12.1621C9.88655 12.1621 4.15625 17.9147 4.15625 25.0113C4.15625 32.0863 9.88655 37.8386 16.9172 37.8386C20.2232 37.8386 23.2205 36.5821 25.4907 34.5106C25.9504 34.0954 26.3778 33.6459 26.7693 33.1659H24.1904C23.8376 32.7252 23.5292 32.2844 23.2205 31.7994H27.7389C28.023 31.3635 28.2735 30.9067 28.4883 30.4329H22.4932C22.2947 29.9922 22.0965 29.5515 21.9419 29.0882H29.017C29.171 28.6475 29.2815 28.185 29.3913 27.7217C29.4795 27.281 29.5677 26.8185 29.6117 26.3552C29.6564 25.9083 29.6786 25.4595 29.6782 25.0105C29.6782 24.5485 29.6561 24.0857 29.612 23.645Z" fill="#CC2131"></path>
    <path fill-rule="evenodd" clip-rule="evenodd" d="M45.1055 27.9868C45.1055 27.7445 45.2819 27.5684 45.5021 27.5684C45.7444 27.5684 45.9205 27.7447 45.9205 27.9868C45.9205 28.2072 45.7441 28.4057 45.5021 28.4057C45.2819 28.4057 45.1055 28.207 45.1055 27.9868ZM45.5021 28.2952C45.6785 28.2952 45.8323 28.1629 45.8323 27.9868C45.8323 27.8106 45.6782 27.6783 45.5021 27.6783C45.3475 27.6783 45.1937 27.8106 45.1937 27.9868C45.1937 28.1629 45.3477 28.2952 45.5021 28.2952ZM45.458 28.1629H45.3698V27.8104H45.6121C45.6562 27.8327 45.6562 27.8768 45.6562 27.9209C45.6562 27.9427 45.6344 27.9868 45.5903 28.0091L45.6785 28.1632H45.568L45.5239 28.0309H45.458V28.1629V27.9647H45.5021C45.5239 27.9647 45.5462 27.9647 45.5462 27.9424C45.568 27.9424 45.568 27.9206 45.568 27.8983C45.568 27.8983 45.568 27.8765 45.5462 27.8765C45.5462 27.8542 45.5239 27.8765 45.5021 27.8765H45.458V28.1629Z" fill="white"></path>
    <path fill-rule="evenodd" clip-rule="evenodd" d="M21.1498 28.7152C20.7312 28.8252 20.4225 28.8916 20.1141 28.8916C19.4529 28.8916 19.056 28.4727 19.056 27.7233C19.056 27.5692 19.0781 27.4148 19.1001 27.2385L19.1883 26.7319L19.2544 26.3129L19.8495 22.6985H21.1719L21.0175 23.492H21.8551L21.6567 24.8144H20.8191L20.4666 26.9741C20.4445 27.0846 20.4445 27.1505 20.4445 27.1946C20.4445 27.4813 20.5768 27.5912 20.9073 27.5912C21.0616 27.5912 21.1937 27.5694 21.326 27.5471L21.1498 28.7152ZM25.4257 28.6711C24.9409 28.8034 24.5002 28.8693 24.0151 28.8693C22.5163 28.8693 21.6567 28.0758 21.6567 26.5114C21.6567 24.6819 22.6707 23.3595 24.081 23.3595C25.205 23.3595 25.9323 24.1089 25.9323 25.2767C25.9323 25.6738 25.8882 26.0484 25.7782 26.5773H23.0232C23.0011 26.6655 23.0011 26.7096 23.0011 26.7536C23.0011 27.3708 23.4198 27.6792 24.2133 27.6792C24.7202 27.6792 25.1609 27.5692 25.6459 27.349L25.4257 28.6711ZM24.6102 25.5194V25.2549C24.6102 24.8142 24.3676 24.5716 23.949 24.5716C23.508 24.5716 23.1996 24.9021 23.0673 25.5192L24.6102 25.5194ZM10.5707 28.7811H9.20417L9.99766 23.7784L8.2125 28.7811H7.26493L7.15469 23.8004L6.3171 28.7811H4.97266L6.05252 22.2796H8.05816L8.10226 26.2911L9.44671 22.2796H11.6508L10.5707 28.7811ZM13.899 26.4232C13.7667 26.4009 13.7226 26.4009 13.6344 26.4009C12.8409 26.4009 12.4443 26.7093 12.4443 27.1944C12.4443 27.5251 12.6427 27.7456 12.9511 27.7456C13.6123 27.7456 13.8767 27.1944 13.899 26.4232ZM15.0009 28.7811H13.8108L13.8328 28.2304C13.5241 28.6488 13.1055 28.8693 12.3781 28.8693C11.7169 28.8693 11.1439 28.2745 11.1439 27.4148C11.1439 27.1726 11.188 26.9523 11.2542 26.7319C11.4744 25.9161 12.2899 25.4095 13.5462 25.3872C13.7005 25.3872 13.9428 25.3872 14.1633 25.4095C14.2071 25.2331 14.2071 25.1667 14.2071 25.0567C14.2071 24.7039 13.9208 24.5937 13.2816 24.5937C12.885 24.5937 12.444 24.6598 12.1356 24.7701L11.9372 24.8141L11.849 24.8359L12.0474 23.6458C12.6866 23.4474 13.1493 23.3595 13.6564 23.3595C14.8465 23.3595 15.4857 23.9104 15.4857 24.9241C15.4857 25.1887 15.5077 25.3872 15.4195 25.9602L15.1111 27.8556L15.067 28.1863L15.045 28.4509L15.0229 28.6273L15.0009 28.7811ZM32.0818 23.5358C32.4784 23.5358 32.8312 23.6461 33.316 23.8884L33.5583 22.4778C33.426 22.4116 33.3819 22.4116 33.2058 22.3455L32.6551 22.1911C32.4787 22.147 32.2584 22.125 32.0156 22.125C31.3321 22.125 30.9355 22.147 30.5171 22.3896C30.2966 22.5439 30.01 22.7424 29.7013 23.0949L29.5249 23.0508L28.1143 24.0424L28.1808 23.4915H26.7258L25.8667 28.7808H27.2555L27.7621 25.9381C27.7621 25.9381 27.9608 25.541 28.0487 25.4092C28.3133 25.0785 28.5335 25.0785 28.8199 25.0785H28.9304C28.8841 25.4144 28.8619 25.7531 28.864 26.0922C28.864 27.8112 29.8336 28.8913 31.3324 28.8913C31.7072 28.8913 32.0382 28.8472 32.5448 28.7149L32.7876 27.2164C32.3469 27.4587 31.95 27.5689 31.6193 27.5689C30.804 27.5689 30.3187 26.9518 30.3187 25.9822C30.3182 24.5496 31.0458 23.5358 32.0818 23.5358ZM43.7844 22.2796L43.4763 24.1309C43.1455 23.624 42.7486 23.3815 42.2197 23.3815C41.4921 23.3815 40.8092 23.8002 40.3902 24.5937V24.5719L39.5088 24.0427L39.597 23.4918H38.1203L37.2827 28.7811H38.6492L39.1122 25.9384C39.1122 25.9384 39.4647 25.5412 39.5529 25.4095C39.7734 25.1449 39.9936 25.1005 40.17 25.0787C40.0159 25.5194 39.9277 26.0484 39.9277 26.6437C39.9277 27.9661 40.6107 28.8475 41.6244 28.8475C42.1315 28.8475 42.5282 28.6711 42.9027 28.2522L42.8368 28.7811H44.1375L45.1953 22.2796H43.7844ZM42.0877 27.5251C41.6247 27.5251 41.3824 27.1726 41.3824 26.4891C41.3824 25.453 41.8231 24.7039 42.462 24.7039C42.9468 24.7039 43.1896 25.0787 43.1896 25.7399C43.1896 26.7977 42.7489 27.5251 42.0877 27.5251ZM35.7185 26.4232C35.5862 26.4009 35.5421 26.4009 35.4539 26.4009C34.6599 26.4009 34.2633 26.7093 34.2633 27.1944C34.2633 27.5251 34.462 27.7456 34.7704 27.7456C35.4316 27.7456 35.6962 27.1944 35.7185 26.4232ZM36.8204 28.7811H35.608L35.6521 28.2304C35.3437 28.6488 34.9245 28.8693 34.1977 28.8693C33.5142 28.8693 32.9194 28.2963 32.9194 27.4148C32.9194 26.1589 33.8667 25.3874 35.3655 25.3874C35.5201 25.3874 35.7621 25.3874 35.9608 25.4097C36.0049 25.2333 36.0272 25.1669 36.0272 25.0569C36.0272 24.7042 35.7406 24.5939 35.0794 24.5939C34.7045 24.5939 34.2418 24.6601 33.9334 24.7703L33.757 24.8144L33.6688 24.8362L33.867 23.6461C34.5064 23.4477 34.9694 23.3597 35.476 23.3597C36.6661 23.3597 37.2832 23.9107 37.2832 24.9244C37.2832 25.189 37.3273 25.3874 37.2173 25.9604L36.9307 27.8558L36.8866 28.1865L36.8425 28.4511L36.8207 28.6275V28.7811H36.8204ZM17.8879 24.6157C18.1525 24.6157 18.5271 24.6378 18.924 24.7039L19.1224 23.4697C18.7255 23.4256 18.1966 23.3595 17.8879 23.3595C16.3453 23.3595 15.8385 24.197 15.8385 25.1667C15.8385 25.8061 16.1248 26.2686 16.8742 26.6211C17.4252 26.8857 17.5134 26.9295 17.5134 27.1723C17.5134 27.5025 17.227 27.7012 16.6978 27.7012C16.2792 27.7012 15.8823 27.6348 15.4416 27.4807L15.2872 28.6926L15.309 28.7149L15.5736 28.759C15.6618 28.7808 15.7721 28.8031 15.9264 28.8249C16.2569 28.8472 16.5435 28.869 16.7199 28.869C18.2628 28.869 18.9019 28.2742 18.9019 27.1059C18.9019 26.3788 18.5491 25.9381 17.8659 25.6297C17.2708 25.3648 17.2047 25.3213 17.2047 25.0785C17.2047 24.8362 17.4693 24.6157 17.8879 24.6157Z" fill="#1B3771"></path>
    <path fill-rule="evenodd" clip-rule="evenodd" d="M33.9321 22.057L33.6894 23.4676C33.2045 23.2251 32.8518 23.1151 32.4552 23.1151C31.4191 23.1151 30.692 24.1288 30.692 25.5615C30.692 26.5534 31.1769 27.1482 31.9927 27.1482C32.3229 27.1482 32.7197 27.0382 33.1604 26.818L32.9182 28.2942C32.4111 28.4265 32.0806 28.4929 31.7058 28.4929C30.2072 28.4929 29.2815 27.4128 29.2815 25.672C29.2815 23.3576 30.5598 21.7266 32.389 21.7266C32.6313 21.7266 32.8515 21.7486 33.0279 21.7927L33.5791 21.925C33.7558 21.9911 33.7999 22.0132 33.9321 22.057ZM29.4799 23.0269H29.3476C28.8851 23.0269 28.6205 23.2474 28.2016 23.8863L28.3339 23.0707H27.0774L26.2183 28.3603H27.6071C28.1137 25.1205 28.2459 24.5695 28.9071 24.5695H28.9953C29.1276 23.9304 29.3038 23.4674 29.5242 23.0487L29.4799 23.0269ZM21.5017 28.2942C21.1271 28.4265 20.8184 28.4706 20.51 28.4706C19.8047 28.4706 19.4078 28.074 19.4078 27.3028C19.4078 27.1705 19.4299 26.9944 19.4519 26.8398L19.5401 26.3109L19.6063 25.8925L20.2013 22.2775H21.5678L21.4135 23.071H22.1188L21.9424 24.3714H21.2371L20.8625 26.5754C20.8405 26.6636 20.8405 26.73 20.8405 26.7959C20.8405 27.0605 20.9728 27.1708 21.3032 27.1708C21.4576 27.1708 21.5896 27.1708 21.6778 27.1267L21.5017 28.2942ZM16.19 24.7459C16.19 25.4074 16.4985 25.8699 17.2258 26.2227C17.7988 26.4872 17.887 26.5752 17.887 26.7957C17.887 27.1264 17.6445 27.2805 17.0935 27.2805C16.6748 27.2805 16.3 27.2146 15.8593 27.0823L15.6609 28.2942L15.727 28.3165L15.9695 28.3606C16.0575 28.3824 16.168 28.4047 16.3441 28.4047C16.6525 28.4488 16.9171 28.4488 17.0935 28.4488C18.5479 28.4488 19.2314 27.8976 19.2314 26.6857C19.2314 25.9581 18.9451 25.5392 18.2618 25.2089C17.6668 24.9444 17.6006 24.8785 17.6006 24.6359C17.6006 24.3496 17.8432 24.2173 18.2839 24.2173C18.5485 24.2173 18.923 24.2393 19.2758 24.2834L19.474 23.0713C19.1215 23.0051 18.5705 22.961 18.2618 22.961C16.7189 22.9608 16.168 23.7763 16.19 24.7459ZM44.4893 28.3606H43.1887L43.2551 27.8535C42.8803 28.2501 42.4834 28.4265 41.9763 28.4265C40.9625 28.4265 40.3013 27.5674 40.3013 26.245C40.3013 24.4816 41.3374 22.9828 42.5493 22.9828C43.1005 22.9828 43.4971 23.2253 43.8722 23.7102L44.1806 21.8589H45.5471L44.4893 28.3606ZM42.4613 27.1264C43.1007 27.1264 43.5414 26.377 43.5414 25.341C43.5414 24.6577 43.2987 24.305 42.8138 24.305C42.1967 24.305 41.7342 25.0323 41.7342 26.0683C41.7342 26.7739 41.9765 27.1264 42.4613 27.1264ZM25.7332 28.2501C25.2481 28.4047 24.8074 28.4706 24.3005 28.4706C22.7577 28.4706 21.9642 27.6553 21.9642 26.0904C21.9642 24.2832 22.9781 22.9387 24.3667 22.9387C25.5127 22.9387 26.2398 23.6881 26.2398 24.8562C26.2398 25.253 26.1957 25.6279 26.0634 26.1786H23.3309C23.3089 26.245 23.3089 26.2891 23.3089 26.3332C23.3089 26.9503 23.7278 27.2587 24.521 27.2587C25.0279 27.2587 25.4686 27.1705 25.9537 26.928L25.7332 28.2501ZM24.9617 25.0984V24.8341C24.9617 24.3934 24.7192 24.1509 24.3005 24.1509C23.8598 24.1509 23.5511 24.4816 23.4189 25.0984H24.9617ZM10.9225 28.3606H9.556L10.3495 23.3574L8.56433 28.3606H7.6165L7.50625 23.4015L6.66893 28.3606H5.39062L6.47049 21.8589H8.45408L8.52023 25.8922L9.84237 21.8589H12.0024L10.9225 28.3606ZM14.3387 26.0022C14.2064 26.0022 14.1403 25.9804 14.03 25.9804C13.2586 25.9804 12.862 26.2668 12.862 26.7957C12.862 27.1264 13.0384 27.3246 13.3468 27.3246C13.9198 27.3246 14.3167 26.7957 14.3387 26.0022ZM15.3524 28.3606H14.2062L14.2282 27.8094C13.8754 28.2501 13.4127 28.4488 12.7735 28.4488C12.0241 28.4488 11.5173 27.8758 11.5173 27.0162C11.5173 25.7161 12.3987 24.9667 13.9416 24.9667C14.0959 24.9667 14.2944 24.9887 14.5146 25.0105C14.5587 24.8344 14.5587 24.7682 14.5587 24.68C14.5587 24.3275 14.3162 24.1952 13.677 24.1952C13.2804 24.1952 12.8394 24.2393 12.531 24.3275L12.3326 24.3937L12.2003 24.4157L12.3987 23.2256C13.082 23.0272 13.5447 22.961 14.0518 22.961C15.2419 22.961 15.8811 23.4899 15.8811 24.5036C15.8811 24.7682 15.859 24.9667 15.7708 25.5617L15.4622 27.4353L15.4181 27.7655L15.396 28.0301L15.374 28.2288L15.3524 28.3606ZM36.1583 26.0022C36.0037 26.0022 35.9378 25.9804 35.8499 25.9804C35.0564 25.9804 34.6592 26.2668 34.6592 26.7957C34.6592 27.1264 34.8579 27.3246 35.1664 27.3246C35.7176 27.3246 36.136 26.7957 36.1583 26.0022ZM37.172 28.3606H36.026L36.0478 27.8094C35.6953 28.2501 35.2325 28.4488 34.5933 28.4488C33.844 28.4488 33.3368 27.8758 33.3368 27.0162C33.3368 25.7161 34.2183 24.9667 35.7611 24.9667C35.9157 24.9667 36.1142 24.9887 36.3124 25.0105C36.3565 24.8344 36.3788 24.7682 36.3788 24.68C36.3788 24.3275 36.136 24.1952 35.4973 24.1952C35.1002 24.1952 34.6377 24.2393 34.329 24.3275L34.1526 24.3937L34.0203 24.4157L34.2185 23.2256C34.902 23.0272 35.3645 22.961 35.8716 22.961C37.0618 22.961 37.6789 23.4899 37.6789 24.5036C37.6789 24.7682 37.6789 24.9667 37.5689 25.5617L37.2822 27.4353L37.2381 27.7655L37.194 28.0301L37.1723 28.2288L37.172 28.3606ZM40.8746 23.0269H40.7423C40.2798 23.0269 40.0152 23.2474 39.5963 23.8863L39.7286 23.0707H38.4721L37.6345 28.3603H39.001C39.5081 25.1205 39.6404 24.5695 40.3016 24.5695H40.3898C40.5221 23.9304 40.6982 23.4674 40.9187 23.0487L40.8746 23.0269Z" fill="white"></path>
  </g>
  <defs>
    <clipPath id="clip0_3_3683">
      <rect width="50" height="50" fill="white" transform="translate(0.480469)"></rect>
    </clipPath>
  </defs>
</svg>
