<?xml version="1.0" encoding="UTF-8"?>
<svg xmlns="http://www.w3.org/2000/svg" width="57" height="15" viewBox="0 0 57 15" fill="none">
  <g clip-path="url(#clip0_3_3692)">
    <path d="M21.1796 3.69531H18.0602C17.957 3.69525 17.8571 3.73207 17.7785 3.79914C17.7 3.8662 17.648 3.95911 17.6319 4.06112L16.3703 12.0601C16.3645 12.0972 16.3668 12.1352 16.3771 12.1713C16.3874 12.2074 16.4053 12.2409 16.4298 12.2694C16.4542 12.298 16.4846 12.3208 16.5187 12.3365C16.5529 12.3522 16.59 12.3603 16.6276 12.3602H18.1168C18.2201 12.3603 18.3201 12.3234 18.3986 12.2562C18.4771 12.1891 18.5291 12.0961 18.5451 11.994L18.8854 9.83651C18.9013 9.7345 18.9532 9.64155 19.0317 9.5744C19.1101 9.50724 19.2099 9.47031 19.3132 9.47025H20.3007C22.3555 9.47025 23.5414 8.47591 23.8511 6.50547C23.9907 5.6434 23.8571 4.96606 23.4534 4.4917C23.01 3.97081 22.2237 3.69531 21.1796 3.69531ZM21.5395 6.61676C21.3689 7.73608 20.5137 7.73608 19.6868 7.73608H19.216L19.5463 5.64568C19.5559 5.58453 19.5871 5.52883 19.6342 5.48861C19.6813 5.44839 19.7411 5.42629 19.8031 5.42629H20.0188C20.5821 5.42629 21.1135 5.42629 21.3881 5.7474C21.5518 5.93897 21.602 6.22359 21.5395 6.61676ZM30.5041 6.58073H29.0103C28.9484 6.58073 28.8885 6.60283 28.8414 6.64305C28.7944 6.68327 28.7632 6.73897 28.7535 6.80012L28.6874 7.21793L28.5829 7.0665C28.2595 6.59715 27.5384 6.44024 26.8187 6.44024C25.168 6.44024 23.7581 7.69047 23.4835 9.44425C23.3407 10.3191 23.5437 11.1556 24.04 11.739C24.4952 12.2754 25.1465 12.4989 25.9215 12.4989C27.2515 12.4989 27.9891 11.6437 27.9891 11.6437L27.9225 12.0587C27.9165 12.0958 27.9187 12.1338 27.9289 12.17C27.939 12.2062 27.9569 12.2397 27.9812 12.2683C28.0056 12.297 28.0359 12.3199 28.07 12.3357C28.1041 12.3515 28.1412 12.3597 28.1788 12.3598H29.5244C29.6277 12.3598 29.7276 12.3229 29.8062 12.2558C29.8847 12.1886 29.9367 12.0956 29.9527 11.9935L30.76 6.88086C30.7659 6.84383 30.7638 6.80595 30.7536 6.76984C30.7435 6.73374 30.7257 6.70026 30.7013 6.67172C30.677 6.64318 30.6468 6.62027 30.6127 6.60456C30.5787 6.58885 30.5416 6.58072 30.5041 6.58073ZM28.4219 9.48804C28.2778 10.3414 27.6004 10.9143 26.7365 10.9143C26.3028 10.9143 25.9561 10.7752 25.7335 10.5116C25.5128 10.2498 25.4289 9.87711 25.4991 9.46204C25.6336 8.61594 26.3224 8.02435 27.1731 8.02435C27.5972 8.02435 27.9421 8.16529 28.1692 8.43121C28.3968 8.69986 28.4871 9.07479 28.4219 9.48804ZM38.4597 6.58073H36.9587C36.8879 6.58084 36.8182 6.59822 36.7556 6.63137C36.6931 6.66451 36.6395 6.71242 36.5997 6.77093L34.5294 9.82055L33.6518 6.88998C33.6248 6.8006 33.5698 6.72226 33.4949 6.66657C33.42 6.61087 33.3292 6.58077 33.2358 6.58073H31.7607C31.7193 6.58062 31.6785 6.5904 31.6416 6.60926C31.6047 6.62812 31.5729 6.65551 31.5488 6.68915C31.5246 6.72279 31.5089 6.76172 31.5028 6.80268C31.4968 6.84364 31.5006 6.88545 31.5139 6.92464L33.1674 11.7768L31.6129 13.9712C31.5853 14.0102 31.5689 14.0559 31.5656 14.1035C31.5622 14.1511 31.572 14.1987 31.5939 14.2411C31.6158 14.2835 31.649 14.319 31.6897 14.3439C31.7305 14.3687 31.7773 14.3818 31.825 14.3818H33.3243C33.3943 14.3818 33.4633 14.365 33.5253 14.3326C33.5874 14.3001 33.6406 14.2532 33.6805 14.1957L38.6732 6.98896C38.7003 6.94997 38.7161 6.90431 38.7191 6.85695C38.7221 6.80958 38.712 6.7623 38.69 6.72024C38.668 6.67819 38.6349 6.64295 38.5943 6.61836C38.5538 6.59376 38.5072 6.58075 38.4597 6.58073Z" fill="#253B80"></path>
    <path d="M43.4297 3.69586H40.3099C40.2067 3.6959 40.1069 3.73277 40.0284 3.79983C39.95 3.86689 39.8981 3.95974 39.882 4.06167L38.6204 12.0606C38.6145 12.0977 38.6168 12.1356 38.6269 12.1717C38.6371 12.2078 38.655 12.2413 38.6794 12.2698C38.7037 12.2983 38.734 12.3212 38.7681 12.3369C38.8021 12.3526 38.8392 12.3608 38.8767 12.3608H40.4777C40.5499 12.3607 40.6197 12.3348 40.6746 12.2878C40.7294 12.2408 40.7657 12.1758 40.7769 12.1044L41.135 9.83706C41.1509 9.73505 41.2028 9.64209 41.2813 9.57494C41.3597 9.50779 41.4596 9.47086 41.5628 9.4708H42.5499C44.6051 9.4708 45.7906 8.47646 46.1008 6.50602C46.2408 5.64395 46.1062 4.96661 45.7026 4.49225C45.2597 3.97136 44.4738 3.69586 43.4297 3.69586ZM43.7896 6.61731C43.6195 7.73663 42.7642 7.73663 41.9368 7.73663H41.4666L41.7973 5.64623C41.8067 5.58507 41.8378 5.52933 41.8848 5.48908C41.9318 5.44884 41.9917 5.42676 42.0536 5.42684H42.2693C42.8322 5.42684 43.364 5.42684 43.6386 5.74794C43.8024 5.93952 43.8521 6.22413 43.7896 6.61731ZM52.7537 6.58128H51.2608C51.1989 6.58111 51.139 6.60315 51.092 6.64341C51.0449 6.68367 51.0139 6.73947 51.0045 6.80067L50.9384 7.21848L50.8335 7.06704C50.5101 6.5977 49.7894 6.44079 49.0696 6.44079C47.4189 6.44079 46.0095 7.69102 45.7349 9.4448C45.5926 10.3196 45.7947 11.1562 46.291 11.7395C46.7471 12.2759 47.3975 12.4994 48.1725 12.4994C49.5025 12.4994 50.24 11.6442 50.24 11.6442L50.1734 12.0593C50.1675 12.0965 50.1697 12.1345 50.1799 12.1708C50.1901 12.207 50.2081 12.2406 50.2325 12.2692C50.257 12.2979 50.2874 12.3208 50.3216 12.3366C50.3558 12.3523 50.393 12.3604 50.4307 12.3603H51.7758C51.8791 12.3603 51.9789 12.3233 52.0573 12.2562C52.1358 12.189 52.1877 12.0961 52.2036 11.9941L53.0114 6.8814C53.0172 6.84426 53.0148 6.80632 53.0045 6.77018C52.9941 6.73404 52.9761 6.70057 52.9516 6.67205C52.9271 6.64354 52.8968 6.62066 52.8626 6.60499C52.8285 6.58932 52.7913 6.58123 52.7537 6.58128ZM50.6715 9.48859C50.5283 10.342 49.8501 10.9149 48.9862 10.9149C48.5533 10.9149 48.2057 10.7758 47.9832 10.5121C47.7624 10.2503 47.6794 9.87766 47.7487 9.46259C47.8842 8.61648 48.572 8.0249 49.4227 8.0249C49.8469 8.0249 50.1917 8.16584 50.4188 8.43176C50.6474 8.70041 50.7377 9.07534 50.6715 9.48859ZM54.5148 3.91525L53.2345 12.0606C53.2286 12.0977 53.2308 12.1356 53.241 12.1717C53.2512 12.2078 53.2691 12.2413 53.2935 12.2698C53.3178 12.2983 53.3481 12.3212 53.3822 12.3369C53.4162 12.3526 53.4533 12.3608 53.4908 12.3608H54.778C54.9919 12.3608 55.1734 12.2057 55.2063 11.9945L56.4688 3.99599C56.4747 3.95891 56.4724 3.92101 56.4623 3.88488C56.4521 3.84875 56.4342 3.81525 56.4098 3.78669C56.3855 3.75813 56.3552 3.73518 56.3212 3.71942C56.2871 3.70366 56.25 3.69547 56.2125 3.6954H54.7711C54.7093 3.69562 54.6495 3.71787 54.6025 3.75815C54.5555 3.79844 54.5244 3.85413 54.5148 3.91525Z" fill="#179BD7"></path>
    <path d="M3.41616 13.9166L3.65471 12.4014L3.12333 12.3891H0.585938L2.3493 1.20818C2.35455 1.17402 2.3719 1.14288 2.39819 1.12044C2.42448 1.098 2.45796 1.08576 2.49252 1.08594H6.77093C8.19129 1.08594 9.17149 1.38151 9.68325 1.96488C9.92317 2.23856 10.076 2.52454 10.1499 2.83927C10.2274 3.1695 10.2288 3.56404 10.1531 4.04525L10.1476 4.08037V4.38871L10.3875 4.52463C10.5707 4.61742 10.7353 4.74295 10.8733 4.895C11.0785 5.12899 11.2113 5.42638 11.2674 5.77896C11.3253 6.14158 11.3061 6.57307 11.2113 7.06157C11.1018 7.62351 10.9248 8.11293 10.6858 8.5134C10.4749 8.87216 10.1914 9.18288 9.85339 9.42564C9.53593 9.65096 9.15872 9.82201 8.73224 9.93148C8.319 10.0391 7.84783 10.0934 7.33104 10.0934H6.99808C6.75998 10.0934 6.52873 10.1792 6.34719 10.3329C6.16591 10.4882 6.04566 10.7029 6.00784 10.9386L5.98275 11.075L5.5613 13.7456L5.54214 13.8436C5.53712 13.8746 5.52846 13.8901 5.51568 13.9006C5.50331 13.9108 5.48788 13.9164 5.4719 13.9166H3.41616Z" fill="#253B80"></path>
    <path d="M10.6158 4.11523C10.603 4.19688 10.5884 4.28035 10.572 4.3661C10.0078 7.26292 8.0775 8.26365 5.61217 8.26365H4.35693C4.05543 8.26365 3.80137 8.48258 3.75439 8.77998L3.11172 12.8559L2.92973 14.0112C2.92248 14.057 2.92524 14.1039 2.93784 14.1486C2.95043 14.1932 2.97256 14.2346 3.00268 14.2699C3.03281 14.3052 3.07023 14.3335 3.11236 14.353C3.15449 14.3724 3.20033 14.3825 3.24673 14.3825H5.47305C5.73669 14.3825 5.96064 14.1909 6.00215 13.9309L6.02404 13.8178L6.44322 11.1577L6.47013 11.0118C6.51118 10.7509 6.73559 10.5593 6.99923 10.5593H7.3322C9.48919 10.5593 11.1777 9.68355 11.6713 7.14935C11.8774 6.09069 11.7707 5.20673 11.2252 4.58504C11.0523 4.39272 10.8458 4.23352 10.6158 4.11523Z" fill="#179BD7"></path>
    <path d="M10.0251 3.87846C9.84495 3.82635 9.66168 3.78567 9.47639 3.75668C9.11027 3.70041 8.74025 3.67341 8.36984 3.67594H5.01645C4.88883 3.67585 4.76538 3.72141 4.66843 3.80439C4.57147 3.88738 4.5074 4.00231 4.4878 4.12842L3.77443 8.64674L3.75391 8.77856C3.77613 8.63472 3.8491 8.50359 3.95962 8.40889C4.07013 8.31418 4.2109 8.26216 4.35644 8.26223H5.61168C8.07701 8.26223 10.0073 7.26105 10.5715 4.36469C10.5884 4.27893 10.6026 4.19546 10.6153 4.11382C10.4664 4.03574 10.3113 3.97029 10.1514 3.91814C10.1095 3.90424 10.0674 3.89101 10.0251 3.87846Z" fill="#222D65"></path>
    <path d="M4.48666 4.12886C4.50609 4.00272 4.57013 3.88773 4.66713 3.80479C4.76414 3.72184 4.88767 3.67645 5.0153 3.67684H8.3687C8.76598 3.67684 9.13681 3.70284 9.47525 3.75758C9.70427 3.79357 9.93013 3.8474 10.1508 3.91859C10.3172 3.97378 10.4719 4.039 10.6146 4.11426C10.7825 3.04375 10.6133 2.31487 10.0345 1.65486C9.39634 0.928262 8.24464 0.617188 6.77091 0.617188H2.4925C2.19146 0.617188 1.93467 0.836125 1.88814 1.13397L0.106083 12.4298C0.097782 12.4822 0.10094 12.5359 0.11534 12.587C0.129739 12.6381 0.155038 12.6854 0.189497 12.7258C0.223955 12.7662 0.266755 12.7987 0.314953 12.821C0.36315 12.8432 0.415601 12.8548 0.468698 12.8549H3.11009L3.77329 8.64718L4.48666 4.12886Z" fill="#253B80"></path>
  </g>
  <defs>
    <clipPath id="clip0_3_3692">
      <rect width="56.391" height="15" fill="white" transform="translate(0.0898438)"></rect>
    </clipPath>
  </defs>
</svg>
