<?xml version="1.0" encoding="UTF-8"?>
<svg xmlns="http://www.w3.org/2000/svg" width="69" height="19" viewBox="0 0 69 19" fill="none">
  <g clip-path="url(#clip0_3_3679)">
    <path d="M46.9783 14.5982V11.225C46.9783 10.3948 46.6669 9.97964 45.8887 9.97964C45.5773 9.97964 45.2142 10.0316 45.0065 10.0834V15.0133C45.0065 15.169 44.8508 15.3247 44.6951 15.3247H43.5014C43.3457 15.3247 43.19 15.169 43.19 15.0133V9.25312C43.19 9.04543 43.3457 8.89 43.5014 8.83801C44.2799 8.57859 45.0582 8.42289 45.8884 8.42289C47.7566 8.42289 48.7945 9.40882 48.7945 11.2253V15.0653C48.7945 15.221 48.6388 15.3767 48.4831 15.3767H47.7566C47.2897 15.3764 46.9783 15.0133 46.9783 14.5982ZM51.6489 12.5743L51.5969 13.0414C51.5969 13.6643 52.012 14.0274 52.6865 14.0274C53.2054 14.0274 53.6725 13.8717 54.1916 13.6123C54.2436 13.6123 54.2953 13.5603 54.3473 13.5603C54.451 13.5603 54.503 13.6123 54.555 13.664C54.607 13.716 54.7107 13.8717 54.7107 13.8717C54.8144 14.0274 54.9184 14.2348 54.9184 14.3905C54.9184 14.6499 54.7627 14.9093 54.5552 15.0133C53.9844 15.3247 53.3099 15.4804 52.5834 15.4804C51.7531 15.4804 51.0783 15.2727 50.5595 14.8576C50.0407 14.3905 49.7293 13.768 49.7293 12.9894V10.9656C49.7293 9.35683 50.7672 8.3709 52.5317 8.3709C54.2441 8.3709 55.23 9.30511 55.23 10.9656V12.2109C55.23 12.3666 55.0743 12.5223 54.9186 12.5223H51.6494L51.6489 12.5743ZM51.5969 11.4327H53.5688V10.9139C53.5688 10.2911 53.2056 9.87593 52.5828 9.87593C51.96 9.87593 51.5969 10.2391 51.5969 10.9139V11.4327ZM64.83 12.5743L64.778 13.0414C64.778 13.6643 65.1931 14.0274 65.8677 14.0274C66.3865 14.0274 66.8536 13.8717 67.3727 13.6123C67.4247 13.6123 67.4764 13.5603 67.5284 13.5603C67.6321 13.5603 67.6841 13.6123 67.7361 13.664C67.7881 13.716 67.8918 13.8717 67.8918 13.8717C67.9955 14.0274 68.0995 14.2348 68.0995 14.3905C68.0995 14.6499 67.9438 14.9093 67.7364 15.0133C67.1656 15.3247 66.491 15.4804 65.7645 15.4804C64.9343 15.4804 64.2595 15.2727 63.7406 14.8576C63.2218 14.3905 62.9104 13.768 62.9104 12.9894V10.9656C62.9104 9.35683 63.9483 8.3709 65.7128 8.3709C67.4252 8.3709 68.4112 9.30511 68.4112 10.9656V12.2109C68.4112 12.3666 68.2555 12.5223 68.0998 12.5223H64.8305V12.5743H64.83ZM64.778 11.4327H66.7499V10.9139C66.7499 10.2911 66.3868 9.87593 65.7639 9.87593C65.1411 9.87593 64.778 10.2391 64.778 10.9139V11.4327ZM34.2643 15.3764H34.9908C35.1466 15.3764 35.3023 15.2207 35.3023 15.065V11.225C35.3023 9.46054 34.368 8.42261 32.8113 8.42261C32.3442 8.42261 31.8253 8.52633 31.5139 8.63031V6.71016C31.5139 6.29504 31.1508 5.93164 30.7354 5.93164H30.0089C29.8532 5.93164 29.6975 6.08734 29.6975 6.24305V15.065C29.6975 15.2207 29.8532 15.3764 30.0089 15.3764H31.2025C31.3582 15.3764 31.5139 15.2207 31.5139 15.065V10.1871C31.7734 10.0834 32.1367 10.0314 32.3962 10.0314C33.1747 10.0314 33.4858 10.3945 33.4858 11.2767V14.6499C33.5378 15.0133 33.8492 15.3764 34.2643 15.3764ZM42.1004 11.0173V12.9375C42.1004 14.5462 41.0107 15.5321 39.1943 15.5321C37.4298 15.5321 36.2882 14.5462 36.2882 12.9375V11.0173C36.2882 9.40855 37.3778 8.42261 39.1943 8.42261C41.0107 8.42261 42.1004 9.40882 42.1004 11.0173ZM40.2842 11.0173C40.2842 10.3945 39.9211 9.97937 39.2463 9.97937C38.5715 9.97937 38.2083 10.3425 38.2083 11.0173V12.9375C38.2083 13.5603 38.5715 13.9234 39.2463 13.9234C39.9211 13.9234 40.2842 13.5603 40.2842 12.9375V11.0173ZM28.7118 10.1353C28.7118 11.7961 27.4665 12.9377 25.8057 12.9377C25.3906 12.9377 25.0272 12.8857 24.6641 12.73V15.0653C24.6641 15.221 24.5084 15.3767 24.3527 15.3767H23.1591C23.0034 15.3767 22.8477 15.221 22.8477 15.0653V6.81414C22.8477 6.60644 23.0034 6.45102 23.1591 6.39902C23.9376 6.13961 24.7158 5.98391 25.5461 5.98391C27.4142 5.98391 28.7116 7.12555 28.7116 8.89C28.7118 8.88972 28.7118 10.1353 28.7118 10.1353ZM26.8437 8.78601C26.8437 7.95578 26.2728 7.54066 25.4943 7.54066C25.0272 7.54066 24.7158 7.69637 24.7158 7.69637V11.1213C25.0272 11.277 25.1829 11.329 25.5461 11.329C26.3246 11.329 26.8954 10.8619 26.8954 10.0836V8.78629H26.8437V8.78601ZM62.2353 10.1353C62.2353 11.7961 60.99 12.9377 59.3292 12.9377C58.9141 12.9377 58.5507 12.8857 58.1876 12.73V15.0653C58.1876 15.221 58.0319 15.3767 57.8762 15.3767H56.6825C56.5268 15.3767 56.3711 15.221 56.3711 15.0653V6.81414C56.3711 6.60644 56.5268 6.45102 56.6825 6.39902C57.4611 6.13961 58.2393 5.98391 59.0695 5.98391C60.9377 5.98391 62.235 7.12555 62.235 8.89C62.2353 8.88972 62.2353 10.1353 62.2353 10.1353ZM60.3672 8.78601C60.3672 7.95578 59.7963 7.54066 59.0178 7.54066C58.5507 7.54066 58.2393 7.69637 58.2393 7.69637V11.1213C58.5507 11.277 58.7064 11.329 59.0695 11.329C59.848 11.329 60.4189 10.8619 60.4189 10.0836V8.78629H60.3672V8.78601Z" fill="#5F259F"></path>
    <path d="M9.28909 18.5801C14.4193 18.5801 18.5782 14.4213 18.5782 9.29104C18.5782 4.16082 14.4193 0.00195312 9.28909 0.00195312C4.15887 0.00195312 0 4.16082 0 9.29104C0 14.4213 4.15887 18.5801 9.28909 18.5801Z" fill="#5F259F"></path>
    <path d="M13.5056 6.8663C13.5056 6.50318 13.1942 6.19177 12.831 6.19177H11.5857L8.7316 2.92256C8.47218 2.61115 8.05707 2.50744 7.64195 2.61115L6.65601 2.92256C6.50031 2.97455 6.44832 3.18197 6.5523 3.28568L9.66582 6.24377H4.94301C4.7873 6.24377 4.68359 6.34748 4.68359 6.50318V7.02201C4.68359 7.38513 4.995 7.69654 5.35812 7.69654H6.08465V10.1875C6.08465 12.0557 7.07058 13.1456 8.73132 13.1456C9.25015 13.1456 9.66554 13.0936 10.1844 12.8862V14.5469C10.1844 15.014 10.5475 15.3772 11.0146 15.3772H11.7411C11.8968 15.3772 12.0525 15.2215 12.0525 15.0658V7.64482H13.2462C13.4019 7.64482 13.5056 7.54111 13.5056 7.38541V6.8663ZM10.1844 11.3292C9.87296 11.4849 9.45785 11.5368 9.14644 11.5368C8.31621 11.5368 7.90109 11.1217 7.90109 10.1875V7.69654H10.1844V11.3292Z" fill="white"></path>
  </g>
  <defs>
    <clipPath id="clip0_3_3679">
      <rect width="68.4094" height="18.58" fill="white"></rect>
    </clipPath>
  </defs>
</svg>
