<?xml version="1.0" encoding="UTF-8"?>
<svg xmlns="http://www.w3.org/2000/svg" width="80" height="20" viewBox="0 0 80 20" fill="none">
  <path d="M69.9548 1.30469L73.7581 8.86611L65.7578 16.4388L69.9548 1.30469Z" fill="#018C45"></path>
  <path d="M67.3103 1.30469L71.1135 8.86611L63.1133 16.4388L67.3103 1.30469Z" fill="#F47920"></path>
  <path d="M12.4309 5.88486H14.2762C14.9288 5.88486 15.4014 5.79484 15.694 5.60355C15.9865 5.41227 16.2116 5.08596 16.3353 4.61337C16.4704 4.12953 16.4366 3.80322 16.2453 3.61193C16.054 3.42064 15.5927 3.33063 14.8726 3.33063H13.1285L12.4309 5.88486ZM6.24219 13.6826L10.0454 0H16.1215C18.0232 0 19.2834 0.303808 19.936 0.922675C20.5774 1.54154 20.7012 2.54298 20.3186 3.94949C20.0823 4.78215 19.7335 5.47978 19.2384 6.03113C18.7545 6.58249 18.1132 7.02132 17.3368 7.33638C18.0006 7.49391 18.4282 7.80897 18.6195 8.29281C18.8108 8.7654 18.7883 9.46303 18.552 10.3744L18.0907 12.2873V12.3436C17.9556 12.8837 18.0006 13.165 18.2144 13.1875L18.0794 13.6938H13.9724C13.9836 13.3675 14.0174 13.0862 14.0399 12.8387C14.0737 12.5911 14.1074 12.3998 14.1412 12.2648L14.5237 10.9033C14.715 10.1944 14.7263 9.69932 14.5462 9.40677C14.3662 9.11421 13.9611 8.96794 13.3198 8.96794H11.5982L10.2592 13.6826H6.24219ZM31.5707 3.58943L28.7689 13.6826H25.3708L25.7871 12.2085C25.1908 12.7937 24.5719 13.2437 23.953 13.525C23.3454 13.8176 22.6928 13.9639 22.0177 13.9639C21.455 13.9639 20.9712 13.8626 20.5886 13.6601C20.1948 13.4575 19.9023 13.1537 19.6997 12.7486C19.5197 12.3998 19.4522 11.961 19.4747 11.4321C19.5084 10.9146 19.6885 10.0481 20.026 8.83291L21.4776 3.58943H25.202L23.7505 8.79915C23.5367 9.5643 23.4917 10.1044 23.5929 10.3857C23.7055 10.6783 23.9868 10.8358 24.4481 10.8358C24.9207 10.8358 25.3145 10.667 25.6408 10.3182C25.9671 9.96937 26.2259 9.46303 26.4172 8.77665L27.8575 3.57817H31.5707V3.58943ZM36.3754 6.15491H37.6919C38.5358 6.15491 39.1321 6.05364 39.4809 5.8511C39.8185 5.64856 40.0548 5.27724 40.2011 4.75964C40.3473 4.23079 40.3136 3.87073 40.0886 3.66819C39.8748 3.46565 39.3347 3.36438 38.457 3.36438H37.1518L36.3754 6.15491ZM30.2204 13.6826L34.0124 0H39.2334C40.3811 0 41.2813 0.0675137 41.9114 0.213791C42.5415 0.360069 43.0479 0.585111 43.4079 0.911422C43.8693 1.339 44.1506 1.86785 44.2743 2.50922C44.3869 3.13934 44.3193 3.88198 44.083 4.75964C43.6555 6.28993 42.9128 7.46015 41.8551 8.28156C40.7862 9.09171 39.4697 9.49678 37.9056 9.49678H35.4639L34.2937 13.6826H30.2204ZM49.3603 9.17047C48.9665 9.328 48.4489 9.48553 47.8188 9.64306C46.8173 9.91311 46.2547 10.2732 46.1309 10.712C46.0409 10.9933 46.0859 11.2184 46.221 11.3871C46.356 11.5447 46.5923 11.6234 46.9298 11.6234C47.5487 11.6234 48.0438 11.4659 48.4151 11.1621C48.7864 10.847 49.0677 10.3632 49.259 9.68807C49.2928 9.54179 49.3265 9.44052 49.3378 9.36176L49.3603 9.17047ZM48.4601 13.6826L48.4939 12.7261C47.8975 13.1762 47.2899 13.5138 46.671 13.7276C46.0634 13.9414 45.4108 14.0539 44.7244 14.0539C43.6667 14.0539 42.9353 13.7726 42.5078 13.21C42.0914 12.6586 42.0239 11.8597 42.3052 10.8358C42.5753 9.83435 43.0704 9.09171 43.768 8.61912C44.4656 8.14653 45.6358 7.79771 47.2787 7.58392C47.4812 7.55017 47.7625 7.52766 48.1113 7.48266C49.3265 7.34763 50.0017 7.02132 50.1479 6.49247C50.2267 6.19992 50.1817 5.98612 50.0017 5.86235C49.8329 5.72733 49.5066 5.65981 49.0452 5.65981C48.6627 5.65981 48.3476 5.73858 48.0888 5.90736C47.83 6.07614 47.6387 6.32369 47.5149 6.6725H43.8918C44.2181 5.53604 44.8932 4.68088 45.8946 4.10702C46.8961 3.52191 48.2126 3.24061 49.8554 3.24061C50.6205 3.24061 51.3182 3.30812 51.9258 3.46565C52.5334 3.61193 52.9835 3.82572 53.2648 4.08452C53.6249 4.41083 53.8274 4.7709 53.8949 5.17597C53.9624 5.58105 53.8836 6.16616 53.6811 6.92005L52.1171 12.5461C52.0721 12.7261 52.0608 12.8949 52.0833 13.0412C52.1171 13.1875 52.1733 13.3112 52.2858 13.39L52.2071 13.6713H48.4601V13.6826ZM52.2296 17.6658L53.051 14.6728H54.1199C54.48 14.6728 54.7501 14.6052 54.9526 14.4702C55.1551 14.3352 55.2902 14.1102 55.3689 13.8063C55.4139 13.6713 55.4364 13.5363 55.4477 13.3788C55.4589 13.21 55.4589 13.0299 55.4477 12.8274L54.8738 3.57817H58.6433L58.587 9.69932L61.8727 3.57817H65.3721L59.5547 13.6263C58.8908 14.7515 58.4182 15.5167 58.1144 15.9442C57.8106 16.3606 57.5293 16.6869 57.248 16.9007C56.888 17.2045 56.4941 17.4183 56.0553 17.542C55.6165 17.6658 54.9638 17.7333 54.0749 17.7333C53.8161 17.7333 53.5236 17.7333 53.2085 17.7108C52.9047 17.7108 52.5672 17.6883 52.2296 17.6658Z" fill="#29387E"></path>
</svg>
