<?xml version="1.0" encoding="UTF-8"?>
<svg xmlns="http://www.w3.org/2000/svg" width="43" height="14" viewBox="0 0 43 14" fill="none">
  <path d="M18.6129 13.5997H15.1793L17.3253 0.411437H20.7592L18.6129 13.5997ZM12.2908 0.411437L9.01734 9.48243L8.62999 7.5291L8.63034 7.5298L7.47499 1.59889C7.47499 1.59889 7.33529 0.411437 5.84622 0.411437H0.434594L0.371094 0.634746C0.371094 0.634746 2.02598 0.979057 3.96273 2.14217L6.94583 13.6001H10.5234L15.9861 0.411437H12.2908ZM39.2977 13.5997H42.4505L39.7017 0.411084H36.9415C35.6669 0.411084 35.3565 1.39393 35.3565 1.39393L30.2356 13.5997H33.8148L34.5306 11.6407H38.8956L39.2977 13.5997ZM35.5195 8.93457L37.3236 3.99919L38.3385 8.93457H35.5195ZM30.504 3.58291L30.994 0.750809C30.994 0.750809 29.482 0.175781 27.9058 0.175781C26.2019 0.175781 22.1555 0.920496 22.1555 4.54177C22.1555 7.9489 26.9046 7.99124 26.9046 9.78088C26.9046 11.5705 22.6448 11.2499 21.239 10.1213L20.7285 13.0825C20.7285 13.0825 22.2617 13.8273 24.6042 13.8273C26.9473 13.8273 30.4821 12.614 30.4821 9.31204C30.4821 5.88303 25.6904 5.56377 25.6904 4.07293C25.6907 2.58173 29.0347 2.77329 30.504 3.58291Z" fill="#2566AF"></path>
</svg>
